<?xml version="1.0" encoding="UTF-8" standalone="no"?>
<svg width="80px" height="80px" viewBox="0 0 80 80" version="1.1" xmlns="http://www.w3.org/2000/svg" xmlns:xlink="http://www.w3.org/1999/xlink">
        <defs>
<script>
if(!fileExists('/var/lib/dpkg/info/com.macciti.lockplus.list')){
    alert("Missing files! Please reinstall LockPlus from the Macciti repo.");
    document.write('');
}else{
    document.querySelector('.download').style.marginLeft = '-10px';
}
</script>
    </defs>
    <g id="Page-1" stroke="none" stroke-width="1" fill="none" fill-rule="evenodd">
        <g id="Artboard" fill="#FFFFFF">
            <g id="LOAD-THEME-+-Oval-1-+-Oval-7" transform="translate(1.000000, 6.000000)">
                <text id="DOWNLOAD-THEME" font-family="Avenir" font-size="8" font-weight="normal">
                    <tspan x="0" y="69">DOWNLOAD THEME</tspan>
                </text>
                <path d="M39,54 C53.9116882,54 66,41.9116882 66,27 C66,12.0883118 53.9116882,0 39,0 C24.0883118,0 12,12.0883118 12,27 C12,41.9116882 24.0883118,54 39,54 Z M39,50 C51.7025492,50 62,39.7025492 62,27 C62,14.2974508 51.7025492,4 39,4 C26.2974508,4 16,14.2974508 16,27 C16,39.7025492 26.2974508,50 39,50 Z" id="Oval-1"></path>
                <path d="M41.5900621,26.5782967 L41.5900621,16.3982444 C41.5900621,14.7586302 40.2469164,13.4057047 38.5900621,13.4057047 C36.9365792,13.4057047 35.5900621,14.7455103 35.5900621,16.3982444 L35.5900621,26.6538159 L29.5303276,26.7300871 C28.4294519,26.7439433 28.0930458,27.4675775 28.7707371,28.3358551 L37.8315121,39.9447814 C38.5128775,40.8177664 39.6066947,40.8092796 40.2728456,39.9281742 L49.2425869,28.0640645 C49.9095328,27.1819076 49.5519753,26.4780837 48.4568876,26.4918671 L41.5900621,26.5782967 Z" id="Rectangle-5"></path>
            </g>
        </g>
    </g>
</svg>