<?xml version="1.0" encoding="UTF-8" standalone="no"?>
<svg width="80px" height="80px" viewBox="0 0 80 80" version="1.1" xmlns="http://www.w3.org/2000/svg" xmlns:xlink="http://www.w3.org/1999/xlink">
    <defs></defs>
    <g id="Page-1" stroke="none" stroke-width="1" fill="none" fill-rule="evenodd">
        <g id="Artboard" fill="#FFFFFF">
            <g id="LOAD-THEME-+-Oval-1-+-Oval-3" transform="translate(13.000000, 6.000000)">
                <text id="LOAD-THEME" font-family="Avenir" font-size="8" font-weight="normal">
                    <tspan x="1" y="69">LOAD THEME</tspan>
                </text>
                <path d="M28.0000062,53.9818244 C42.11656,53.4678513 53.4678511,42.1165603 53.9818244,28.0000066 L53.9818246,28 L49.9786516,28 C49.4692792,39.9070528 39.9070528,49.4692792 28,49.9786516 L28,53.9818246 Z M25.9999938,53.9818244 C11.88344,53.4678513 0.532148891,42.1165603 0.018175632,28.0000066 L4.02134837,28 C4.53072077,39.9070528 14.0929472,49.4692792 26,49.9786516 L26,53.9818246 Z M28.0000062,0.0181756184 C42.11656,0.532148687 53.4678511,11.8834397 53.9818244,25.9999934 L53.9818246,26 L49.9786516,26 C49.4692792,14.0929472 39.9070528,4.53072077 28,4.02134837 L28,0.0181753932 Z M25.9999938,0.0181756184 C11.88344,0.532148687 0.532148891,11.8834397 0.018175632,25.9999934 L4.02134837,26 C4.53072077,14.0929472 14.0929472,4.53072077 26,4.02134837 L26,0.0181753932 Z" id="Oval-1"></path>
                <path d="M27,43 C35.836556,43 43,35.836556 43,27 C43,18.163444 35.836556,11 27,11 C18.163444,11 11,18.163444 11,27 C11,35.836556 18.163444,43 27,43 Z M27,39 C33.627417,39 39,33.627417 39,27 C39,20.372583 33.627417,15 27,15 C20.372583,15 15,20.372583 15,27 C15,33.627417 20.372583,39 27,39 Z" id="Oval-3"></path>
            </g>
        </g>
    </g>
</svg>