<?xml version="1.0" encoding="UTF-8" standalone="no"?>
<svg width="80px" height="80px" viewBox="0 0 80 80" version="1.1" xmlns="http://www.w3.org/2000/svg" xmlns:xlink="http://www.w3.org/1999/xlink">
    <defs></defs>
    <g id="Page-1" stroke="none" stroke-width="1" fill="none" fill-rule="evenodd">
        <g id="Artboard" fill="#FFFFFF">
            <g id="LOAD-THEME-+-Oval-1-+-Oval-5" transform="translate(3.000000, 6.000000)">
                <text id="REFRESH-WEATHER" font-family="Avenir" font-size="8" font-weight="normal">
                    <tspan x="0" y="69">REFRESH WEATHER</tspan>
                </text>
                <path d="M11.6781238,17.6085925 C10.5929229,20.5334806 10,23.697498 10,27 C10,41.9116882 22.0883118,54 37,54 C42.0751679,54 46.8232845,52.5997265 50.8790803,50.164449 L50.8790803,50.164449 L48.6159477,46.8554848 C45.2068826,48.8541798 41.2372516,50 37,50 C24.2974508,50 14,39.7025492 14,27 C14,24.2845161 14.4705897,21.6789442 15.3346654,19.2603883 L24.8788339,23.5718547 L20.0783472,6.28709588 L3.42797415,13.8816864 L11.6781238,17.6085925 Z M61.8467171,37.5837567 C63.2328673,34.3337547 64,30.7564641 64,27 C64,12.0883118 51.9116882,0 37,0 C32.4050077,0 28.078108,1.14784062 24.2903926,3.17243012 L26.6222165,6.46881786 C29.740026,4.88975806 33.2661059,4 37,4 C49.7025492,4 60,14.2974508 60,27 C60,30.1693041 59.3589738,33.1888885 58.1995031,35.9361715 L51.3673911,32.849847 L55.2998338,47.0091036 L68.939417,40.7877987 L61.8467171,37.5837567 L61.8467171,37.5837567 Z" id="Oval-1"></path>
            </g>
        </g>
    </g>
</svg>