<?xml version="1.0" encoding="UTF-8" standalone="no"?>
<svg width="80px" height="80px" viewBox="0 0 80 80" version="1.1" xmlns="http://www.w3.org/2000/svg" xmlns:xlink="http://www.w3.org/1999/xlink">
    <defs></defs>
    <g id="Page-1" stroke="none" stroke-width="1" fill="none" fill-rule="evenodd">
        <g id="Artboard" fill="#FFFFFF">
            <g id="LOAD-THEME-+-Oval-1-+-Oval-4" transform="translate(13.000000, 6.000000)">
                <text id="RESET-THEME" font-family="Avenir" font-size="8" font-weight="normal">
                    <tspan x="1" y="69">RESET THEME</tspan>
                </text>
                <path d="M0.400839488,29.0586709 L0.346547019,29.0706025 C1.39877283,43.0148412 12.9900903,54 27.1343612,54 C41.9718438,54 54,41.9116882 54,27 C54,12.0883118 41.9718438,0 27.1343612,0 C19.2942434,0 12.2385064,3.37512907 7.32722518,8.75851005 L7.32722518,8.75851005 L2.40758503,4.58946818 C1.56765313,3.8776862 0.839017428,4.20311758 0.780836159,5.30302055 L0.00294897507,20.0087916 C-0.0555477227,21.1146577 0.775534457,21.8258613 1.85634203,21.597917 L16.4094481,18.5286395 C17.4915455,18.3004231 17.6834435,17.5346616 16.8479275,16.8266218 L10.3730761,11.3396501 C14.5516942,6.82446589 20.5148245,4 27.1343612,4 C39.7736982,4 50.0199054,14.2974508 50.0199054,27 C50.0199054,39.7025492 39.7736982,50 27.1343612,50 C15.261886,50 5.50095523,40.9141894 4.36021716,29.2837677 C4.37331756,29.1910727 4.38009425,29.0963317 4.38009425,29 C4.38009425,28.7931988 4.34886331,28.5937285 4.2908829,28.406093 C4.28688962,28.3395458 4.28317789,28.2729224 4.27974889,28.2062237 L4.22256022,28.2187918 C3.91981472,27.5024086 3.21331076,27 2.39004693,27 C1.29097415,27 0.399999619,27.8954305 0.399999619,29 C0.399999619,29.0196243 0.400280851,29.0391825 0.400839488,29.0586709 Z" id="Oval-1"></path>
            </g>
        </g>
    </g>
</svg>