<?xml version="1.0" encoding="UTF-8" standalone="no"?>
<svg width="80px" height="80px" viewBox="0 0 80 80" version="1.1" xmlns="http://www.w3.org/2000/svg" xmlns:xlink="http://www.w3.org/1999/xlink">
    <defs></defs>
    <g id="Page-1" stroke="none" stroke-width="1" fill="none" fill-rule="evenodd">
        <g id="Artboard" fill="#FFFFFF">
            <g id="LOAD-THEME-+-Oval-1-+-Oval-6" transform="translate(11.000000, 4.000000)">
                <text id="SETTINGS" font-family="Avenir" font-size="8" font-weight="normal">
                    <tspan x="10" y="71">SETTINGS</tspan>
                </text>
                <path d="M29,56 C43.9116882,56 56,43.9116882 56,29 C56,14.0883118 43.9116882,2 29,2 C14.0883118,2 2,14.0883118 2,29 C2,43.9116882 14.0883118,56 29,56 Z M29,52 C41.7025492,52 52,41.7025492 52,29 C52,16.2974508 41.7025492,6 29,6 C16.2974508,6 6,16.2974508 6,29 C6,41.7025492 16.2974508,52 29,52 Z" id="Oval-1"></path>
                <path d="M38,7.27207794 L38,4.00945862 C38,1.79942536 36.2114745,0 34.0052166,0 L23.9947834,0 C21.7917156,0 20,1.79509577 20,4.00945862 L20,7.27207794 L20,7.27207794 L17.6929798,4.9650577 C16.1302503,3.40232819 13.5931859,3.39462079 12.0331259,4.95468075 L4.95468075,12.0331259 C3.39687658,13.5909301 3.39926671,16.1271888 4.9650577,17.6929798 L7.27207794,20 L4.00945862,20 C1.79942536,20 8.09809388e-15,21.7885255 7.96299954e-15,23.9947834 L7.35003729e-15,34.0052166 C7.2151383e-15,36.2082844 1.79509577,38 4.00945862,38 L7.27207794,38 L4.9650577,40.3070202 C3.40232819,41.8697497 3.39462079,44.4068141 4.95468075,45.9668741 L12.0331259,53.0453193 C13.5909301,54.6031234 16.1271888,54.6007333 17.6929798,53.0349423 L20,50.7279221 L20,53.9905414 C20,56.2005746 21.7885255,58 23.9947834,58 L34.0052166,58 C36.2082844,58 38,56.2049042 38,53.9905414 L38,50.7279221 L40.3070202,53.0349423 C41.8697497,54.5976718 44.4068141,54.6053792 45.9668741,53.0453193 L53.0453193,45.9668741 C54.6031234,44.4090699 54.6007333,41.8728112 53.0349423,40.3070202 L50.7279221,38 L53.9905414,38 C56.2005746,38 58,36.2114745 58,34.0052166 L58,23.9947834 C58,21.7917156 56.2049042,20 53.9905414,20 L50.7279221,20 L53.0349423,17.6929798 C54.5976718,16.1302503 54.6053792,13.5931859 53.0453193,12.0331259 L45.9668741,4.95468075 C44.4090699,3.39687658 41.8728112,3.39926671 40.3070202,4.9650577 L38,7.27207794 L38,7.27207794 Z M29,52 C41.7025492,52 52,41.7025492 52,29 C52,16.2974508 41.7025492,6 29,6 C16.2974508,6 6,16.2974508 6,29 C6,41.7025492 16.2974508,52 29,52 Z" id="Rectangle-3"></path>
            </g>
        </g>
    </g>
</svg>