<?xml version="1.0" encoding="UTF-8" standalone="no"?>
<svg width="80px" height="80px" viewBox="0 0 80 80" version="1.1" xmlns="http://www.w3.org/2000/svg" xmlns:xlink="http://www.w3.org/1999/xlink">
    <defs></defs>
    <g id="Page-1" stroke="none" stroke-width="1" fill="none" fill-rule="evenodd">
        <g id="Artboard" fill="#FFFFFF">
            <g id="LOAD-THEME-+-Oval-1-+-Oval-8" transform="translate(13.000000, 6.000000)">
                <text id="VIEW-THEMES" font-family="Avenir" font-size="8" font-weight="normal">
                    <tspan x="0" y="69">VIEW THEMES</tspan>
                </text>
                <path d="M27,54 C41.9116882,54 54,41.9116882 54,27 C54,12.0883118 41.9116882,0 27,0 C12.0883118,0 0,12.0883118 0,27 C0,41.9116882 12.0883118,54 27,54 Z M27,50 C39.7025492,50 50,39.7025492 50,27 C50,14.2974508 39.7025492,4 27,4 C14.2974508,4 4,14.2974508 4,27 C4,39.7025492 14.2974508,50 27,50 Z" id="Oval-1"></path>
            </g>
            <rect id="Rectangle-6" x="25" y="21" width="30" height="4" rx="1"></rect>
            <rect id="Rectangle-7" x="25" y="31" width="30" height="4" rx="1"></rect>
            <rect id="Rectangle-8" x="25" y="41" width="30" height="4" rx="1"></rect>
        </g>
    </g>
</svg>